<?xml version="1.0"?>
<svg version="1.1" xmlns="http://www.w3.org/2000/svg" xmlns:xlink="http://www.w3.org/1999/xlink" width="50" height="50">
    <desc iVinci="yes" version="4.6" gridStep="20" showGrid="no" snapToGrid="no" codePlatform="0"/>
    <g id="Layer1" name="Layer 1" opacity="1">
        <g id="Shape1">
            <desc shapeID="1" type="0" basicInfo-basicType="0" basicInfo-roundedRectRadius="12" basicInfo-polygonSides="6" basicInfo-starPoints="5" bounding="rect(-16.6945,-17.3475,33.389,34.695)" text="" font-familyName="" font-pixelSize="20" font-bold="0" font-underline="0" font-alignment="1" strokeStyle="0" markerStart="0" markerEnd="0" shadowEnabled="0" shadowOffsetX="0" shadowOffsetY="2" shadowBlur="4" shadowOpacity="160" blurEnabled="0" blurRadius="4" transform="matrix(1,0,0,1,25.0005,25.0005)" pers-center="0,0" pers-size="0,0" pers-start="0,0" pers-end="0,0" locked="0" mesh="" flag=""/>
            <path id="shapePath1" d="M35.993,28.748 C36.267,27.944 36.437,27.112 36.55,26.273 C36.622,25.429 36.639,24.58 36.545,23.737 C38.374,22.892 40.117,21.737 41.695,20.292 C41.292,18.906 40.745,17.558 40.009,16.319 C37.798,16.301 35.675,16.661 33.736,17.359 C33.193,16.708 32.548,16.149 31.872,15.642 C31.194,15.132 30.449,14.724 29.682,14.364 C29.855,12.379 29.731,10.266 29.264,8.193 C27.869,7.827 26.436,7.674 25,7.653 C23.871,9.57 23.122,11.592 22.749,13.601 C21.922,13.785 21.104,14.021 20.332,14.371 C19.561,14.718 18.81,15.124 18.139,15.641 C16.481,14.464 14.624,13.552 12.585,12.895 C11.569,13.917 10.71,15.089 9.976,16.333 C11.072,18.268 12.446,19.927 14.009,21.254 C13.735,22.056 13.565,22.888 13.453,23.728 C13.379,24.572 13.364,25.421 13.457,26.264 C11.627,27.111 9.884,28.263 8.306,29.708 C8.709,31.095 9.257,32.442 9.992,33.681 C12.202,33.7 14.325,33.34 16.265,32.642 C16.807,33.292 17.453,33.853 18.129,34.36 C18.807,34.869 19.553,35.277 20.32,35.637 C20.147,37.621 20.27,39.734 20.737,41.808 C22.133,42.175 23.565,42.328 25.002,42.348 C26.131,40.431 26.88,38.409 27.253,36.4 C28.079,36.217 28.897,35.98 29.669,35.631 C30.44,35.283 31.191,34.877 31.863,34.361 C33.521,35.538 35.377,36.45 37.417,37.106 C38.433,36.085 39.291,34.913 40.027,33.669 C38.932,31.733 37.556,30.074 35.993,28.748 M29.915,25.542 C29.709,27.257 28.603,28.843 26.98,29.52 C25.425,30.233 23.445,30.014 22.084,28.982 C20.647,27.967 19.913,26.177 20.086,24.459 C20.291,22.744 21.398,21.158 23.02,20.48 C24.574,19.769 26.553,19.986 27.916,21.02 C29.354,22.034 30.088,23.825 29.915,25.542 Z" style="stroke:none;fill-rule:nonzero;fill:#ffffff;fill-opacity:1;"/>
        </g>
    </g>
</svg>
