<?xml version="1.0"?>
<svg version="1.1" xmlns="http://www.w3.org/2000/svg" xmlns:xlink="http://www.w3.org/1999/xlink" width="50" height="50">
    <desc iVinci="yes" version="4.6" gridStep="20" showGrid="no" snapToGrid="no" codePlatform="0"/>
    <g id="Layer1" name="Layer 1" opacity="1">
        <g id="Shape1">
            <desc shapeID="1" type="0" basicInfo-basicType="0" basicInfo-roundedRectRadius="12" basicInfo-polygonSides="6" basicInfo-starPoints="5" bounding="rect(-24.1665,-24.8252,48.333,49.6503)" text="" font-familyName="" font-pixelSize="20" font-bold="0" font-underline="0" font-alignment="1" strokeStyle="0" markerStart="0" markerEnd="0" shadowEnabled="0" shadowOffsetX="0" shadowOffsetY="2" shadowBlur="4" shadowOpacity="160" blurEnabled="0" blurRadius="4" transform="matrix(1,0,0,1,25.0005,25.0018)" pers-center="0,0" pers-size="0,0" pers-start="0,0" pers-end="0,0" locked="0" mesh="" flag=""/>
            <path id="shapePath1" d="M43.692,25 C43.628,24.186 43.663,23.362 43.515,22.556 C45.437,21.68 47.402,20.59 49.167,19.329 C48.895,18.116 48.513,16.936 48.054,15.781 C45.811,15.636 43.535,15.767 41.433,16.086 C40.992,15.399 40.627,14.659 40.107,14.025 C39.639,13.353 39.106,12.733 38.542,12.14 C39.631,10.251 40.477,8.317 41.217,6.206 C40.277,5.407 39.293,4.645 38.237,4.002 C36.326,5.218 34.598,6.593 33.047,8.149 C32.324,7.762 31.542,7.514 30.776,7.229 C29.995,6.998 29.204,6.773 28.4,6.632 C28.158,4.539 27.716,2.343 27.066,0.261999 C25.833,0.173 24.599,0.136 23.365,0.238001 C22.535,2.302 21.953,4.519 21.605,6.632 C20.801,6.773 20.009,6.997 19.228,7.229 C18.461,7.514 17.68,7.763 16.956,8.149 C15.506,6.554 13.89,5.084 12.133,3.778 C11.054,4.391 10.08,5.161 9.104,5.92 C9.709,8.148 10.447,10.175 11.459,12.139 C10.894,12.732 10.362,13.351 9.893,14.024 C9.372,14.658 9.009,15.398 8.567,16.085 C6.498,15.665 4.327,15.423 2.098,15.378 C1.66,16.539 1.209,17.698 0.937,18.912 C2.655,20.346 4.561,21.571 6.485,22.557 C6.338,23.362 6.373,24.186 6.31,25 C6.373,25.814 6.339,26.638 6.487,27.444 C4.564,28.32 2.599,29.41 0.834,30.672 C1.106,31.885 1.488,33.066 1.948,34.22 C4.191,34.365 6.467,34.235 8.569,33.916 C9.011,34.602 9.374,35.343 9.895,35.977 C10.364,36.649 10.896,37.268 11.461,37.862 C10.372,39.751 9.525,41.684 8.787,43.796 C9.726,44.596 10.711,45.357 11.767,46 C13.679,44.784 15.405,43.409 16.956,41.854 C17.68,42.241 18.461,42.49 19.228,42.774 C20.009,43.005 20.801,43.23 21.605,43.371 C21.847,45.465 22.288,47.66 22.938,49.741 C24.171,49.831 25.405,49.867 26.638,49.766 C27.468,47.702 28.051,45.484 28.4,43.37 C29.204,43.229 29.995,43.005 30.776,42.773 C31.543,42.489 32.325,42.24 33.047,41.852 C34.498,43.448 36.112,44.918 37.87,46.223 C38.949,45.61 39.922,44.839 40.897,44.081 C40.293,41.852 39.555,39.826 38.543,37.861 C39.107,37.267 39.641,36.648 40.108,35.976 C40.629,35.342 40.993,34.601 41.434,33.914 C43.503,34.335 45.673,34.576 47.904,34.621 C48.341,33.46 48.793,32.301 49.063,31.087 C47.345,29.653 45.44,28.429 43.516,27.443 C43.663,26.638 43.628,25.813 43.692,25 M28.564,35.964 C26.284,36.705 23.717,36.705 21.437,35.964 C19.174,35.198 17.071,33.755 15.681,31.764 C14.229,29.813 13.504,27.434 13.467,25 C13.504,22.566 14.229,20.187 15.681,18.235 C17.071,16.245 19.175,14.802 21.437,14.035 C23.718,13.294 26.284,13.294 28.564,14.035 C30.827,14.802 32.93,16.244 34.319,18.235 C35.772,20.187 36.497,22.566 36.534,25 C36.497,27.434 35.772,29.813 34.319,31.764 C32.931,33.755 30.827,35.198 28.564,35.964 Z" style="stroke:none;fill-rule:nonzero;fill:#ffffff;fill-opacity:1;"/>
        </g>
    </g>
</svg>
