<svg xmlns="http://www.w3.org/2000/svg" width="600" height="600"><path d="M-63,815L-216,787L126,855Z" fill="#788cbb" stroke="#788cbb" stroke-width="1.51"/><path d="M64,-278L241,-259L390,-271Z" fill="#bcd9ec" stroke="#bcd9ec" stroke-width="1.51"/><path d="M64,-278L390,-271L518,-279Z" fill="#b0d0e9" stroke="#b0d0e9" stroke-width="1.51"/><path d="M518,-279L686,-185L781,-186Z" fill="#8fa8d3" stroke="#8fa8d3" stroke-width="1.51"/><path d="M727,776L473,866L835,794Z" fill="#105197" stroke="#105197" stroke-width="1.51"/><path d="M723,578L846,702L857,518Z" fill="#175a9e" stroke="#175a9e" stroke-width="1.51"/><path d="M786,36L690,204L874,280Z" fill="#5d85b8" stroke="#5d85b8" stroke-width="1.51"/><path d="M690,204L773,388L874,280Z" fill="#457bb4" stroke="#457bb4" stroke-width="1.51"/><path d="M773,388L857,518L874,280Z" fill="#336ba5" stroke="#336ba5" stroke-width="1.51"/><path d="M861,-58L786,36L874,280Z" fill="#6683b2" stroke="#6683b2" stroke-width="1.51"/><path d="M773,388L723,578L857,518Z" fill="#2668a8" stroke="#2668a8" stroke-width="1.51"/><path d="M653,-91L786,36L861,-58Z" fill="#7a92c3" stroke="#7a92c3" stroke-width="1.51"/><path d="M781,-186L653,-91L861,-58Z" fill="#8096c6" stroke="#8096c6" stroke-width="1.51"/><path d="M727,776L835,794L846,702Z" fill="#094a92" stroke="#094a92" stroke-width="1.51"/><path d="M690,204L687,366L773,388Z" fill="#4380bb" stroke="#4380bb" stroke-width="1.51"/><path d="M682,725L727,776L846,702Z" fill="#0a529d" stroke="#0a529d" stroke-width="1.51"/><path d="M723,578L682,725L846,702Z" fill="#1159a3" stroke="#1159a3" stroke-width="1.51"/><path d="M687,366L723,578L773,388Z" fill="#2e74b3" stroke="#2e74b3" stroke-width="1.51"/><path d="M686,-185L653,-91L781,-186Z" fill="#879fcd" stroke="#879fcd" stroke-width="1.51"/><path d="M635,60L690,204L786,36Z" fill="#6c93c5" stroke="#6c93c5" stroke-width="1.51"/><path d="M653,-91L635,60L786,36Z" fill="#7b99ca" stroke="#7b99ca" stroke-width="1.51"/><path d="M687,366L580,559L723,578Z" fill="#2b75b5" stroke="#2b75b5" stroke-width="1.51"/><path d="M544,252L687,366L690,204Z" fill="#508cc3" stroke="#508cc3" stroke-width="1.51"/><path d="M580,559L682,725L723,578Z" fill="#1c68ae" stroke="#1c68ae" stroke-width="1.51"/><path d="M682,725L473,866L727,776Z" fill="#15599f" stroke="#15599f" stroke-width="1.51"/><path d="M345,827L126,855L473,866Z" fill="#3f71a7" stroke="#3f71a7" stroke-width="1.51"/><path d="M580,559L522,707L682,725Z" fill="#1e6ab0" stroke="#1e6ab0" stroke-width="1.51"/><path d="M522,707L473,866L682,725Z" fill="#1e63a8" stroke="#1e63a8" stroke-width="1.51"/><path d="M544,252L545,346L687,366Z" fill="#498ec5" stroke="#498ec5" stroke-width="1.51"/><path d="M545,346L580,559L687,366Z" fill="#3883bf" stroke="#3883bf" stroke-width="1.51"/><path d="M635,60L544,252L690,204Z" fill="#6498c8" stroke="#6498c8" stroke-width="1.51"/><path d="M518,-279L653,-91L686,-185Z" fill="#8fabd6" stroke="#8fabd6" stroke-width="1.51"/><path d="M491,-26L635,60L653,-91Z" fill="#82a6d3" stroke="#82a6d3" stroke-width="1.51"/><path d="M494,51L544,252L635,60Z" fill="#71a2cf" stroke="#71a2cf" stroke-width="1.51"/><path d="M518,-279L491,-26L653,-91Z" fill="#8eb0d8" stroke="#8eb0d8" stroke-width="1.51"/><path d="M491,-26L494,51L635,60Z" fill="#80aad4" stroke="#80aad4" stroke-width="1.51"/><path d="M390,-271L491,-26L518,-279Z" fill="#9abddf" stroke="#9abddf" stroke-width="1.51"/><path d="M382,500L346,653L522,707Z" fill="#3982be" stroke="#3982be" stroke-width="1.51"/><path d="M494,51L347,181L544,252Z" fill="#71abd3" stroke="#71abd3" stroke-width="1.51"/><path d="M376,401L382,500L545,346Z" fill="#4a96c9" stroke="#4a96c9" stroke-width="1.51"/><path d="M545,346L382,500L580,559Z" fill="#3c8ac2" stroke="#3c8ac2" stroke-width="1.51"/><path d="M382,500L522,707L580,559Z" fill="#307dbc" stroke="#307dbc" stroke-width="1.51"/><path d="M390,-271L345,-62L491,-26Z" fill="#99c0e0" stroke="#99c0e0" stroke-width="1.51"/><path d="M347,181L376,401L544,252Z" fill="#60a4d1" stroke="#60a4d1" stroke-width="1.51"/><path d="M544,252L376,401L545,346Z" fill="#5098ca" stroke="#5098ca" stroke-width="1.51"/><path d="M343,68L347,181L494,51Z" fill="#82b6d9" stroke="#82b6d9" stroke-width="1.51"/><path d="M345,827L473,866L522,707Z" fill="#2c6ba8" stroke="#2c6ba8" stroke-width="1.51"/><path d="M346,653L345,827L522,707Z" fill="#3677b5" stroke="#3677b5" stroke-width="1.51"/><path d="M204,821L126,855L345,827Z" fill="#517aad" stroke="#517aad" stroke-width="1.51"/><path d="M345,-62L343,68L491,-26Z" fill="#91bcde" stroke="#91bcde" stroke-width="1.51"/><path d="M491,-26L343,68L494,51Z" fill="#87b4da" stroke="#87b4da" stroke-width="1.51"/><path d="M241,-259L194,-116L345,-62Z" fill="#add0e8" stroke="#add0e8" stroke-width="1.51"/><path d="M262,688L345,827L346,653Z" fill="#4480ba" stroke="#4480ba" stroke-width="1.51"/><path d="M347,181L232,258L376,401Z" fill="#6caed6" stroke="#6caed6" stroke-width="1.51"/><path d="M232,258L212,323L376,401Z" fill="#6daed6" stroke="#6daed6" stroke-width="1.51"/><path d="M376,401L194,482L382,500Z" fill="#559dcd" stroke="#559dcd" stroke-width="1.51"/><path d="M194,482L346,653L382,500Z" fill="#4f95c8" stroke="#4f95c8" stroke-width="1.51"/><path d="M241,-259L345,-62L390,-271Z" fill="#a9cce7" stroke="#a9cce7" stroke-width="1.51"/><path d="M194,482L262,688L346,653Z" fill="#5291c6" stroke="#5291c6" stroke-width="1.51"/><path d="M212,323L194,482L376,401Z" fill="#66a8d2" stroke="#66a8d2" stroke-width="1.51"/><path d="M196,21L343,68L345,-62Z" fill="#9bc4e2" stroke="#9bc4e2" stroke-width="1.51"/><path d="M262,688L204,821L345,827Z" fill="#4a7cb5" stroke="#4a7cb5" stroke-width="1.51"/><path d="M343,68L196,21L347,181Z" fill="#8fc0df" stroke="#8fc0df" stroke-width="1.51"/><path d="M196,21L232,258L347,181Z" fill="#8cbfdd" stroke="#8cbfdd" stroke-width="1.51"/><path d="M194,-116L196,21L345,-62Z" fill="#a8cce6" stroke="#a8cce6" stroke-width="1.51"/><path d="M194,-116L127,-60L196,21Z" fill="#b3d3e8" stroke="#b3d3e8" stroke-width="1.51"/><path d="M196,21L106,99L232,258Z" fill="#9dc9e1" stroke="#9dc9e1" stroke-width="1.51"/><path d="M25,706L204,821L262,688Z" fill="#618bbf" stroke="#618bbf" stroke-width="1.51"/><path d="M194,482L25,706L262,688Z" fill="#6798c9" stroke="#6798c9" stroke-width="1.51"/><path d="M32,470L25,706L194,482Z" fill="#77a5d1" stroke="#77a5d1" stroke-width="1.51"/><path d="M62,338L194,482L212,323Z" fill="#7bb4d7" stroke="#7bb4d7" stroke-width="1.51"/><path d="M106,99L70,247L232,258Z" fill="#98c6e0" stroke="#98c6e0" stroke-width="1.51"/><path d="M64,-278L194,-116L241,-259Z" fill="#c2dced" stroke="#c2dced" stroke-width="1.51"/><path d="M25,706L126,855L204,821Z" fill="#6587b8" stroke="#6587b8" stroke-width="1.51"/><path d="M70,247L212,323L232,258Z" fill="#86bcdc" stroke="#86bcdc" stroke-width="1.51"/><path d="M62,338L32,470L194,482Z" fill="#7fb3d7" stroke="#7fb3d7" stroke-width="1.51"/><path d="M70,247L62,338L212,323Z" fill="#8bbddd" stroke="#8bbddd" stroke-width="1.51"/><path d="M64,-278L127,-60L194,-116Z" fill="#c1dbed" stroke="#c1dbed" stroke-width="1.51"/><path d="M127,-60L106,99L196,21Z" fill="#b1d2e7" stroke="#b1d2e7" stroke-width="1.51"/><path d="M-71,547L25,706L32,470Z" fill="#82a7d4" stroke="#82a7d4" stroke-width="1.51"/><path d="M25,706L-23,727L126,855Z" fill="#718fc1" stroke="#718fc1" stroke-width="1.51"/><path d="M-23,727L-63,815L126,855Z" fill="#738cbc" stroke="#738cbc" stroke-width="1.51"/><path d="M-36,-196L-87,-120L127,-60Z" fill="#d0e1f3" stroke="#d0e1f3" stroke-width="1.51"/><path d="M-91,78L106,99L127,-60Z" fill="#bbd6eb" stroke="#bbd6eb" stroke-width="1.51"/><path d="M-87,-120L-91,78L127,-60Z" fill="#cadef1" stroke="#cadef1" stroke-width="1.51"/><path d="M64,-278L-36,-196L127,-60Z" fill="#cee1f1" stroke="#cee1f1" stroke-width="1.51"/><path d="M-61,229L70,247L106,99Z" fill="#a7cce4" stroke="#a7cce4" stroke-width="1.51"/><path d="M-91,78L-61,229L106,99Z" fill="#b5d4e9" stroke="#b5d4e9" stroke-width="1.51"/><path d="M-84,412L32,470L62,338Z" fill="#8fbadd" stroke="#8fbadd" stroke-width="1.51"/><path d="M-257,-275L-36,-196L64,-278Z" fill="#e1ecf8" stroke="#e1ecf8" stroke-width="1.51"/><path d="M-61,229L62,338L70,247Z" fill="#9cc5e3" stroke="#9cc5e3" stroke-width="1.51"/><path d="M-61,229L-84,412L62,338Z" fill="#9ac3e2" stroke="#9ac3e2" stroke-width="1.51"/><path d="M-71,547L-23,727L25,706Z" fill="#7f9ecd" stroke="#7f9ecd" stroke-width="1.51"/><path d="M-84,412L-71,547L32,470Z" fill="#8cb5da" stroke="#8cb5da" stroke-width="1.51"/><path d="M-204,49L-91,78L-87,-120Z" fill="#d0e2f3" stroke="#d0e2f3" stroke-width="1.51"/><path d="M-71,547L-254,662L-23,727Z" fill="#87a4d1" stroke="#87a4d1" stroke-width="1.51"/><path d="M-216,787L-63,815L-23,727Z" fill="#7f94c3" stroke="#7f94c3" stroke-width="1.51"/><path d="M-254,662L-216,787L-23,727Z" fill="#879ecc" stroke="#879ecc" stroke-width="1.51"/><path d="M-261,333L-84,412L-61,229Z" fill="#a4c9e5" stroke="#a4c9e5" stroke-width="1.51"/><path d="M-91,78L-199,177L-61,229Z" fill="#bad7ea" stroke="#bad7ea" stroke-width="1.51"/><path d="M-257,-275L-87,-120L-36,-196Z" fill="#e0ecf8" stroke="#e0ecf8" stroke-width="1.51"/><path d="M-261,-57L-204,49L-87,-120Z" fill="#d9e7f5" stroke="#d9e7f5" stroke-width="1.51"/><path d="M-84,412L-225,493L-71,547Z" fill="#93b8dc" stroke="#93b8dc" stroke-width="1.51"/><path d="M-199,177L-261,333L-61,229Z" fill="#b2d3e9" stroke="#b2d3e9" stroke-width="1.51"/><path d="M-225,493L-254,662L-71,547Z" fill="#92b1d9" stroke="#92b1d9" stroke-width="1.51"/><path d="M-204,49L-199,177L-91,78Z" fill="#c6deef" stroke="#c6deef" stroke-width="1.51"/><path d="M-257,-275L-261,-57L-87,-120Z" fill="#e3edf8" stroke="#e3edf8" stroke-width="1.51"/><path d="M-261,333L-225,493L-84,412Z" fill="#9fc3e2" stroke="#9fc3e2" stroke-width="1.51"/><path d="M-204,49L-261,-57L-199,177Z" fill="#d1e4f2" stroke="#d1e4f2" stroke-width="1.51"/><path d="M-261,-57L-261,333L-199,177Z" fill="#c6dfee" stroke="#c6dfee" stroke-width="1.51"/><path d="M-261,333L-254,662L-225,493Z" fill="#9cbddf" stroke="#9cbddf" stroke-width="1.51"/></svg>