<svg xmlns="http://www.w3.org/2000/svg" width="600" height="600"><path d="M-63,815L-216,787L126,855Z" fill="#79a36a" stroke="#79a36a" stroke-width="1.51"/><path d="M64,-278L241,-259L390,-271Z" fill="#c8e8ae" stroke="#c8e8ae" stroke-width="1.51"/><path d="M64,-278L390,-271L518,-279Z" fill="#b9e1a8" stroke="#b9e1a8" stroke-width="1.51"/><path d="M518,-279L686,-185L781,-186Z" fill="#8fb982" stroke="#8fb982" stroke-width="1.51"/><path d="M727,776L473,866L835,794Z" fill="#096737" stroke="#096737" stroke-width="1.51"/><path d="M723,578L846,702L857,518Z" fill="#136f3a" stroke="#136f3a" stroke-width="1.51"/><path d="M786,36L690,204L874,280Z" fill="#5b9b5e" stroke="#5b9b5e" stroke-width="1.51"/><path d="M690,204L773,388L874,280Z" fill="#459356" stroke="#459356" stroke-width="1.51"/><path d="M773,388L857,518L874,280Z" fill="#2f834a" stroke="#2f834a" stroke-width="1.51"/><path d="M861,-58L786,36L874,280Z" fill="#669960" stroke="#669960" stroke-width="1.51"/><path d="M773,388L723,578L857,518Z" fill="#1f7f44" stroke="#1f7f44" stroke-width="1.51"/><path d="M653,-91L786,36L861,-58Z" fill="#7baa6c" stroke="#7baa6c" stroke-width="1.51"/><path d="M781,-186L653,-91L861,-58Z" fill="#82ac71" stroke="#82ac71" stroke-width="1.51"/><path d="M727,776L835,794L846,702Z" fill="#006034" stroke="#006034" stroke-width="1.51"/><path d="M690,204L687,366L773,388Z" fill="#439857" stroke="#439857" stroke-width="1.51"/><path d="M682,725L727,776L846,702Z" fill="#026938" stroke="#026938" stroke-width="1.51"/><path d="M723,578L682,725L846,702Z" fill="#0c6f3a" stroke="#0c6f3a" stroke-width="1.51"/><path d="M687,366L723,578L773,388Z" fill="#298b4b" stroke="#298b4b" stroke-width="1.51"/><path d="M686,-185L653,-91L781,-186Z" fill="#8ab577" stroke="#8ab577" stroke-width="1.51"/><path d="M635,60L690,204L786,36Z" fill="#6da966" stroke="#6da966" stroke-width="1.51"/><path d="M653,-91L635,60L786,36Z" fill="#7cb06d" stroke="#7cb06d" stroke-width="1.51"/><path d="M687,366L580,559L723,578Z" fill="#288b49" stroke="#288b49" stroke-width="1.51"/><path d="M544,252L687,366L690,204Z" fill="#52a25e" stroke="#52a25e" stroke-width="1.51"/><path d="M580,559L682,725L723,578Z" fill="#1b7c3f" stroke="#1b7c3f" stroke-width="1.51"/><path d="M682,725L473,866L727,776Z" fill="#106f3a" stroke="#106f3a" stroke-width="1.51"/><path d="M345,827L126,855L473,866Z" fill="#3e8851" stroke="#3e8851" stroke-width="1.51"/><path d="M580,559L522,707L682,725Z" fill="#1e7e41" stroke="#1e7e41" stroke-width="1.51"/><path d="M522,707L473,866L682,725Z" fill="#19793f" stroke="#19793f" stroke-width="1.51"/><path d="M544,252L545,346L687,366Z" fill="#4da45c" stroke="#4da45c" stroke-width="1.51"/><path d="M545,346L580,559L687,366Z" fill="#389952" stroke="#389952" stroke-width="1.51"/><path d="M635,60L544,252L690,204Z" fill="#67ac65" stroke="#67ac65" stroke-width="1.51"/><path d="M518,-279L653,-91L686,-185Z" fill="#92be7f" stroke="#92be7f" stroke-width="1.51"/><path d="M491,-26L635,60L653,-91Z" fill="#86bb73" stroke="#86bb73" stroke-width="1.51"/><path d="M494,51L544,252L635,60Z" fill="#75b86d" stroke="#75b86d" stroke-width="1.51"/><path d="M518,-279L491,-26L653,-91Z" fill="#95c57f" stroke="#95c57f" stroke-width="1.51"/><path d="M491,-26L494,51L635,60Z" fill="#85bf75" stroke="#85bf75" stroke-width="1.51"/><path d="M390,-271L491,-26L518,-279Z" fill="#a1d28e" stroke="#a1d28e" stroke-width="1.51"/><path d="M382,500L346,653L522,707Z" fill="#389852" stroke="#389852" stroke-width="1.51"/><path d="M494,51L347,181L544,252Z" fill="#78c273" stroke="#78c273" stroke-width="1.51"/><path d="M376,401L382,500L545,346Z" fill="#4cb061" stroke="#4cb061" stroke-width="1.51"/><path d="M545,346L382,500L580,559Z" fill="#3aa157" stroke="#3aa157" stroke-width="1.51"/><path d="M382,500L522,707L580,559Z" fill="#2f934d" stroke="#2f934d" stroke-width="1.51"/><path d="M390,-271L345,-62L491,-26Z" fill="#a5d68c" stroke="#a5d68c" stroke-width="1.51"/><path d="M347,181L376,401L544,252Z" fill="#67bc6f" stroke="#67bc6f" stroke-width="1.51"/><path d="M544,252L376,401L545,346Z" fill="#54b064" stroke="#54b064" stroke-width="1.51"/><path d="M343,68L347,181L494,51Z" fill="#8ccc7e" stroke="#8ccc7e" stroke-width="1.51"/><path d="M345,827L473,866L522,707Z" fill="#248347" stroke="#248347" stroke-width="1.51"/><path d="M346,653L345,827L522,707Z" fill="#328f4e" stroke="#328f4e" stroke-width="1.51"/><path d="M204,821L126,855L345,827Z" fill="#509157" stroke="#509157" stroke-width="1.51"/><path d="M345,-62L343,68L491,-26Z" fill="#9bd385" stroke="#9bd385" stroke-width="1.51"/><path d="M491,-26L343,68L494,51Z" fill="#8ecc7e" stroke="#8ecc7e" stroke-width="1.51"/><path d="M241,-259L194,-116L345,-62Z" fill="#bfe49b" stroke="#bfe49b" stroke-width="1.51"/><path d="M262,688L345,827L346,653Z" fill="#439757" stroke="#439757" stroke-width="1.51"/><path d="M347,181L232,258L376,401Z" fill="#79c679" stroke="#79c679" stroke-width="1.51"/><path d="M232,258L212,323L376,401Z" fill="#79c678" stroke="#79c678" stroke-width="1.51"/><path d="M376,401L194,482L382,500Z" fill="#5ab568" stroke="#5ab568" stroke-width="1.51"/><path d="M194,482L346,653L382,500Z" fill="#54ab62" stroke="#54ab62" stroke-width="1.51"/><path d="M241,-259L345,-62L390,-271Z" fill="#b6df9d" stroke="#b6df9d" stroke-width="1.51"/><path d="M194,482L262,688L346,653Z" fill="#56a65f" stroke="#56a65f" stroke-width="1.51"/><path d="M212,323L194,482L376,401Z" fill="#6ec072" stroke="#6ec072" stroke-width="1.51"/><path d="M196,21L343,68L345,-62Z" fill="#a9db8e" stroke="#a9db8e" stroke-width="1.51"/><path d="M262,688L204,821L345,827Z" fill="#499457" stroke="#499457" stroke-width="1.51"/><path d="M343,68L196,21L347,181Z" fill="#9dd688" stroke="#9dd688" stroke-width="1.51"/><path d="M196,21L232,258L347,181Z" fill="#9ad486" stroke="#9ad486" stroke-width="1.51"/><path d="M194,-116L196,21L345,-62Z" fill="#b8e196" stroke="#b8e196" stroke-width="1.51"/><path d="M194,-116L127,-60L196,21Z" fill="#c4e79b" stroke="#c4e79b" stroke-width="1.51"/><path d="M196,21L106,99L232,258Z" fill="#acdd8d" stroke="#acdd8d" stroke-width="1.51"/><path d="M25,706L204,821L262,688Z" fill="#5fa160" stroke="#5fa160" stroke-width="1.51"/><path d="M194,482L25,706L262,688Z" fill="#68ac66" stroke="#68ac66" stroke-width="1.51"/><path d="M32,470L25,706L194,482Z" fill="#7bba70" stroke="#7bba70" stroke-width="1.51"/><path d="M62,338L194,482L212,323Z" fill="#85ca7b" stroke="#85ca7b" stroke-width="1.51"/><path d="M106,99L70,247L232,258Z" fill="#a6da8b" stroke="#a6da8b" stroke-width="1.51"/><path d="M64,-278L194,-116L241,-259Z" fill="#d1ecac" stroke="#d1ecac" stroke-width="1.51"/><path d="M25,706L126,855L204,821Z" fill="#639d60" stroke="#639d60" stroke-width="1.51"/><path d="M70,247L212,323L232,258Z" fill="#94d283" stroke="#94d283" stroke-width="1.51"/><path d="M62,338L32,470L194,482Z" fill="#86ca7b" stroke="#86ca7b" stroke-width="1.51"/><path d="M70,247L62,338L212,323Z" fill="#98d485" stroke="#98d485" stroke-width="1.51"/><path d="M64,-278L127,-60L194,-116Z" fill="#d5eea5" stroke="#d5eea5" stroke-width="1.51"/><path d="M127,-60L106,99L196,21Z" fill="#c1e697" stroke="#c1e697" stroke-width="1.51"/><path d="M-71,547L25,706L32,470Z" fill="#86bd74" stroke="#86bd74" stroke-width="1.51"/><path d="M25,706L-23,727L126,855Z" fill="#71a667" stroke="#71a667" stroke-width="1.51"/><path d="M-23,727L-63,815L126,855Z" fill="#73a367" stroke="#73a367" stroke-width="1.51"/><path d="M-36,-196L-87,-120L127,-60Z" fill="#e6f5ac" stroke="#e6f5ac" stroke-width="1.51"/><path d="M-91,78L106,99L127,-60Z" fill="#cdeb9c" stroke="#cdeb9c" stroke-width="1.51"/><path d="M-87,-120L-91,78L127,-60Z" fill="#def2a6" stroke="#def2a6" stroke-width="1.51"/><path d="M64,-278L-36,-196L127,-60Z" fill="#e2f3ae" stroke="#e2f3ae" stroke-width="1.51"/><path d="M-61,229L70,247L106,99Z" fill="#b7e193" stroke="#b7e193" stroke-width="1.51"/><path d="M-91,78L-61,229L106,99Z" fill="#c7e89a" stroke="#c7e89a" stroke-width="1.51"/><path d="M-84,412L32,470L62,338Z" fill="#98d283" stroke="#98d283" stroke-width="1.51"/><path d="M-257,-275L-36,-196L64,-278Z" fill="#f3fac2" stroke="#f3fac2" stroke-width="1.51"/><path d="M-61,229L62,338L70,247Z" fill="#abdc8e" stroke="#abdc8e" stroke-width="1.51"/><path d="M-61,229L-84,412L62,338Z" fill="#a9da8d" stroke="#a9da8d" stroke-width="1.51"/><path d="M-71,547L-23,727L25,706Z" fill="#81b470" stroke="#81b470" stroke-width="1.51"/><path d="M-84,412L-71,547L32,470Z" fill="#93cc7f" stroke="#93cc7f" stroke-width="1.51"/><path d="M-204,49L-91,78L-87,-120Z" fill="#e5f5ac" stroke="#e5f5ac" stroke-width="1.51"/><path d="M-71,547L-254,662L-23,727Z" fill="#8bb977" stroke="#8bb977" stroke-width="1.51"/><path d="M-216,787L-63,815L-23,727Z" fill="#80ab70" stroke="#80ab70" stroke-width="1.51"/><path d="M-254,662L-216,787L-23,727Z" fill="#89b378" stroke="#89b378" stroke-width="1.51"/><path d="M-261,333L-84,412L-61,229Z" fill="#b4df95" stroke="#b4df95" stroke-width="1.51"/><path d="M-91,78L-199,177L-61,229Z" fill="#cdeaa0" stroke="#cdeaa0" stroke-width="1.51"/><path d="M-257,-275L-87,-120L-36,-196Z" fill="#f6fcbf" stroke="#f6fcbf" stroke-width="1.51"/><path d="M-261,-57L-204,49L-87,-120Z" fill="#eef8b6" stroke="#eef8b6" stroke-width="1.51"/><path d="M-84,412L-225,493L-71,547Z" fill="#9bce85" stroke="#9bce85" stroke-width="1.51"/><path d="M-199,177L-261,333L-61,229Z" fill="#c3e5a0" stroke="#c3e5a0" stroke-width="1.51"/><path d="M-225,493L-254,662L-71,547Z" fill="#97c484" stroke="#97c484" stroke-width="1.51"/><path d="M-204,49L-199,177L-91,78Z" fill="#daf0a9" stroke="#daf0a9" stroke-width="1.51"/><path d="M-257,-275L-261,-57L-87,-120Z" fill="#f9fcc1" stroke="#f9fcc1" stroke-width="1.51"/><path d="M-261,333L-225,493L-84,412Z" fill="#a8d893" stroke="#a8d893" stroke-width="1.51"/><path d="M-204,49L-261,-57L-199,177Z" fill="#e2f3b4" stroke="#e2f3b4" stroke-width="1.51"/><path d="M-261,-57L-261,333L-199,177Z" fill="#d5eeb1" stroke="#d5eeb1" stroke-width="1.51"/><path d="M-261,333L-254,662L-225,493Z" fill="#9fcf93" stroke="#9fcf93" stroke-width="1.51"/></svg>