<svg xmlns="http://www.w3.org/2000/svg" width="600" height="600"><path d="M-63,815L-216,787L126,855Z" fill="#d48052" stroke="#d48052" stroke-width="1.51"/><path d="M64,-278L241,-259L390,-271Z" fill="#ffcd83" stroke="#ffcd83" stroke-width="1.51"/><path d="M64,-278L390,-271L518,-279Z" fill="#ffc17e" stroke="#ffc17e" stroke-width="1.51"/><path d="M518,-279L686,-185L781,-186Z" fill="#f29466" stroke="#f29466" stroke-width="1.51"/><path d="M727,776L473,866L835,794Z" fill="#b90624" stroke="#b90624" stroke-width="1.51"/><path d="M723,578L846,702L857,518Z" fill="#c40d22" stroke="#c40d22" stroke-width="1.51"/><path d="M786,36L690,204L874,280Z" fill="#d86737" stroke="#d86737" stroke-width="1.51"/><path d="M690,204L773,388L874,280Z" fill="#d75732" stroke="#d75732" stroke-width="1.51"/><path d="M773,388L857,518L874,280Z" fill="#cb3d2c" stroke="#cb3d2c" stroke-width="1.51"/><path d="M861,-58L786,36L874,280Z" fill="#cd6f41" stroke="#cd6f41" stroke-width="1.51"/><path d="M773,388L723,578L857,518Z" fill="#d22727" stroke="#d22727" stroke-width="1.51"/><path d="M653,-91L786,36L861,-58Z" fill="#df8351" stroke="#df8351" stroke-width="1.51"/><path d="M781,-186L653,-91L861,-58Z" fill="#e1885a" stroke="#e1885a" stroke-width="1.51"/><path d="M727,776L835,794L846,702Z" fill="#b00026" stroke="#b00026" stroke-width="1.51"/><path d="M690,204L687,366L773,388Z" fill="#e2552f" stroke="#e2552f" stroke-width="1.51"/><path d="M682,725L727,776L846,702Z" fill="#be0126" stroke="#be0126" stroke-width="1.51"/><path d="M723,578L682,725L846,702Z" fill="#c70724" stroke="#c70724" stroke-width="1.51"/><path d="M687,366L723,578L773,388Z" fill="#df3328" stroke="#df3328" stroke-width="1.51"/><path d="M686,-185L653,-91L781,-186Z" fill="#eb8e5e" stroke="#eb8e5e" stroke-width="1.51"/><path d="M635,60L690,204L786,36Z" fill="#e7763d" stroke="#e7763d" stroke-width="1.51"/><path d="M653,-91L635,60L786,36Z" fill="#ea854a" stroke="#ea854a" stroke-width="1.51"/><path d="M687,366L580,559L723,578Z" fill="#e32c23" stroke="#e32c23" stroke-width="1.51"/><path d="M544,252L687,366L690,204Z" fill="#ec612e" stroke="#ec612e" stroke-width="1.51"/><path d="M580,559L682,725L723,578Z" fill="#d81420" stroke="#d81420" stroke-width="1.51"/><path d="M682,725L473,866L727,776Z" fill="#c40b23" stroke="#c40b23" stroke-width="1.51"/><path d="M345,827L126,855L473,866Z" fill="#c84f31" stroke="#c84f31" stroke-width="1.51"/><path d="M580,559L522,707L682,725Z" fill="#db171f" stroke="#db171f" stroke-width="1.51"/><path d="M522,707L473,866L682,725Z" fill="#d01a24" stroke="#d01a24" stroke-width="1.51"/><path d="M544,252L545,346L687,366Z" fill="#f15b2a" stroke="#f15b2a" stroke-width="1.51"/><path d="M545,346L580,559L687,366Z" fill="#f04024" stroke="#f04024" stroke-width="1.51"/><path d="M635,60L544,252L690,204Z" fill="#f07032" stroke="#f07032" stroke-width="1.51"/><path d="M518,-279L653,-91L686,-185Z" fill="#f89560" stroke="#f89560" stroke-width="1.51"/><path d="M491,-26L635,60L653,-91Z" fill="#f78c49" stroke="#f78c49" stroke-width="1.51"/><path d="M494,51L544,252L635,60Z" fill="#f77e38" stroke="#f77e38" stroke-width="1.51"/><path d="M518,-279L491,-26L653,-91Z" fill="#fd985b" stroke="#fd985b" stroke-width="1.51"/><path d="M491,-26L494,51L635,60Z" fill="#fa8d46" stroke="#fa8d46" stroke-width="1.51"/><path d="M390,-271L491,-26L518,-279Z" fill="#ffa568" stroke="#ffa568" stroke-width="1.51"/><path d="M382,500L346,653L522,707Z" fill="#ee4126" stroke="#ee4126" stroke-width="1.51"/><path d="M494,51L347,181L544,252Z" fill="#fe8239" stroke="#fe8239" stroke-width="1.51"/><path d="M376,401L382,500L545,346Z" fill="#fd5b2d" stroke="#fd5b2d" stroke-width="1.51"/><path d="M545,346L382,500L580,559Z" fill="#f64426" stroke="#f64426" stroke-width="1.51"/><path d="M382,500L522,707L580,559Z" fill="#ed3221" stroke="#ed3221" stroke-width="1.51"/><path d="M390,-271L345,-62L491,-26Z" fill="#ffa962" stroke="#ffa962" stroke-width="1.51"/><path d="M347,181L376,401L544,252Z" fill="#fe7935" stroke="#fe7935" stroke-width="1.51"/><path d="M544,252L376,401L545,346Z" fill="#fa652f" stroke="#fa652f" stroke-width="1.51"/><path d="M343,68L347,181L494,51Z" fill="#ff9644" stroke="#ff9644" stroke-width="1.51"/><path d="M345,827L473,866L522,707Z" fill="#d13029" stroke="#d13029" stroke-width="1.51"/><path d="M346,653L345,827L522,707Z" fill="#df3f2a" stroke="#df3f2a" stroke-width="1.51"/><path d="M204,821L126,855L345,827Z" fill="#cc5d35" stroke="#cc5d35" stroke-width="1.51"/><path d="M345,-62L343,68L491,-26Z" fill="#ffa554" stroke="#ffa554" stroke-width="1.51"/><path d="M491,-26L343,68L494,51Z" fill="#ff974b" stroke="#ff974b" stroke-width="1.51"/><path d="M241,-259L194,-116L345,-62Z" fill="#ffc270" stroke="#ffc270" stroke-width="1.51"/><path d="M262,688L345,827L346,653Z" fill="#e1552f" stroke="#e1552f" stroke-width="1.51"/><path d="M347,181L232,258L376,401Z" fill="#fd8c3c" stroke="#fd8c3c" stroke-width="1.51"/><path d="M232,258L212,323L376,401Z" fill="#fd8c3c" stroke="#fd8c3c" stroke-width="1.51"/><path d="M376,401L194,482L382,500Z" fill="#fc6c31" stroke="#fc6c31" stroke-width="1.51"/><path d="M194,482L346,653L382,500Z" fill="#f5642d" stroke="#f5642d" stroke-width="1.51"/><path d="M241,-259L345,-62L390,-271Z" fill="#ffbd73" stroke="#ffbd73" stroke-width="1.51"/><path d="M194,482L262,688L346,653Z" fill="#f0632d" stroke="#f0632d" stroke-width="1.51"/><path d="M212,323L194,482L376,401Z" fill="#fe7f37" stroke="#fe7f37" stroke-width="1.51"/><path d="M196,21L343,68L345,-62Z" fill="#ffb358" stroke="#ffb358" stroke-width="1.51"/><path d="M262,688L204,821L345,827Z" fill="#d85a33" stroke="#d85a33" stroke-width="1.51"/><path d="M343,68L196,21L347,181Z" fill="#ffa84c" stroke="#ffa84c" stroke-width="1.51"/><path d="M196,21L232,258L347,181Z" fill="#fea546" stroke="#fea546" stroke-width="1.51"/><path d="M194,-116L196,21L345,-62Z" fill="#ffbe63" stroke="#ffbe63" stroke-width="1.51"/><path d="M194,-116L127,-60L196,21Z" fill="#ffc768" stroke="#ffc768" stroke-width="1.51"/><path d="M196,21L106,99L232,258Z" fill="#feb24e" stroke="#feb24e" stroke-width="1.51"/><path d="M25,706L204,821L262,688Z" fill="#e16b37" stroke="#e16b37" stroke-width="1.51"/><path d="M194,482L25,706L262,688Z" fill="#f07233" stroke="#f07233" stroke-width="1.51"/><path d="M32,470L25,706L194,482Z" fill="#f9833e" stroke="#f9833e" stroke-width="1.51"/><path d="M62,338L194,482L212,323Z" fill="#fe913e" stroke="#fe913e" stroke-width="1.51"/><path d="M106,99L70,247L232,258Z" fill="#feae4b" stroke="#feae4b" stroke-width="1.51"/><path d="M64,-278L194,-116L241,-259Z" fill="#ffd17f" stroke="#ffd17f" stroke-width="1.51"/><path d="M25,706L126,855L204,821Z" fill="#d66e3d" stroke="#d66e3d" stroke-width="1.51"/><path d="M70,247L212,323L232,258Z" fill="#fea044" stroke="#fea044" stroke-width="1.51"/><path d="M62,338L32,470L194,482Z" fill="#ff9043" stroke="#ff9043" stroke-width="1.51"/><path d="M70,247L62,338L212,323Z" fill="#fea449" stroke="#fea449" stroke-width="1.51"/><path d="M64,-278L127,-60L194,-116Z" fill="#ffd279" stroke="#ffd279" stroke-width="1.51"/><path d="M127,-60L106,99L196,21Z" fill="#fec45f" stroke="#fec45f" stroke-width="1.51"/><path d="M-71,547L25,706L32,470Z" fill="#f88d48" stroke="#f88d48" stroke-width="1.51"/><path d="M25,706L-23,727L126,855Z" fill="#df7b46" stroke="#df7b46" stroke-width="1.51"/><path d="M-23,727L-63,815L126,855Z" fill="#d77c4a" stroke="#d77c4a" stroke-width="1.51"/><path d="M-36,-196L-87,-120L127,-60Z" fill="#ffe188" stroke="#ffe188" stroke-width="1.51"/><path d="M-91,78L106,99L127,-60Z" fill="#ffce6a" stroke="#ffce6a" stroke-width="1.51"/><path d="M-87,-120L-91,78L127,-60Z" fill="#fedc7e" stroke="#fedc7e" stroke-width="1.51"/><path d="M64,-278L-36,-196L127,-60Z" fill="#ffde88" stroke="#ffde88" stroke-width="1.51"/><path d="M-61,229L70,247L106,99Z" fill="#ffbc59" stroke="#ffbc59" stroke-width="1.51"/><path d="M-91,78L-61,229L106,99Z" fill="#ffc965" stroke="#ffc965" stroke-width="1.51"/><path d="M-84,412L32,470L62,338Z" fill="#ffa151" stroke="#ffa151" stroke-width="1.51"/><path d="M-257,-275L-36,-196L64,-278Z" fill="#ffeea4" stroke="#ffeea4" stroke-width="1.51"/><path d="M-61,229L62,338L70,247Z" fill="#ffb457" stroke="#ffb457" stroke-width="1.51"/><path d="M-61,229L-84,412L62,338Z" fill="#ffb15b" stroke="#ffb15b" stroke-width="1.51"/><path d="M-71,547L-23,727L25,706Z" fill="#ef884c" stroke="#ef884c" stroke-width="1.51"/><path d="M-84,412L-71,547L32,470Z" fill="#ff9a53" stroke="#ff9a53" stroke-width="1.51"/><path d="M-204,49L-91,78L-87,-120Z" fill="#ffe188" stroke="#ffe188" stroke-width="1.51"/><path d="M-71,547L-254,662L-23,727Z" fill="#f28f58" stroke="#f28f58" stroke-width="1.51"/><path d="M-216,787L-63,815L-23,727Z" fill="#de8658" stroke="#de8658" stroke-width="1.51"/><path d="M-254,662L-216,787L-23,727Z" fill="#e98e60" stroke="#e98e60" stroke-width="1.51"/><path d="M-261,333L-84,412L-61,229Z" fill="#ffb96a" stroke="#ffb96a" stroke-width="1.51"/><path d="M-91,78L-199,177L-61,229Z" fill="#ffcc71" stroke="#ffcc71" stroke-width="1.51"/><path d="M-257,-275L-87,-120L-36,-196Z" fill="#ffeea4" stroke="#ffeea4" stroke-width="1.51"/><path d="M-261,-57L-204,49L-87,-120Z" fill="#ffe896" stroke="#ffe896" stroke-width="1.51"/><path d="M-84,412L-225,493L-71,547Z" fill="#ff9f5f" stroke="#ff9f5f" stroke-width="1.51"/><path d="M-199,177L-261,333L-61,229Z" fill="#ffc675" stroke="#ffc675" stroke-width="1.51"/><path d="M-225,493L-254,662L-71,547Z" fill="#fc9a61" stroke="#fc9a61" stroke-width="1.51"/><path d="M-204,49L-199,177L-91,78Z" fill="#ffd77f" stroke="#ffd77f" stroke-width="1.51"/><path d="M-257,-275L-261,-57L-87,-120Z" fill="#fff0a8" stroke="#fff0a8" stroke-width="1.51"/><path d="M-261,333L-225,493L-84,412Z" fill="#ffad6c" stroke="#ffad6c" stroke-width="1.51"/><path d="M-204,49L-261,-57L-199,177Z" fill="#ffe08e" stroke="#ffe08e" stroke-width="1.51"/><path d="M-261,-57L-261,333L-199,177Z" fill="#ffd583" stroke="#ffd583" stroke-width="1.51"/><path d="M-261,333L-254,662L-225,493Z" fill="#ffa56e" stroke="#ffa56e" stroke-width="1.51"/></svg>