<svg xmlns="http://www.w3.org/2000/svg" width="600" height="600"><path d="M-63,815L-216,787L126,855Z" fill="#737373" stroke="#737373" stroke-width="1.51"/><path d="M64,-278L241,-259L390,-271Z" fill="#d1d1d1" stroke="#d1d1d1" stroke-width="1.51"/><path d="M64,-278L390,-271L518,-279Z" fill="#c5c5c5" stroke="#c5c5c5" stroke-width="1.51"/><path d="M518,-279L686,-185L781,-186Z" fill="#969696" stroke="#969696" stroke-width="1.51"/><path d="M727,776L473,866L835,794Z" fill="#292929" stroke="#292929" stroke-width="1.51"/><path d="M723,578L846,702L857,518Z" fill="#343434" stroke="#343434" stroke-width="1.51"/><path d="M786,36L690,204L874,280Z" fill="#656565" stroke="#656565" stroke-width="1.51"/><path d="M690,204L773,388L874,280Z" fill="#585858" stroke="#585858" stroke-width="1.51"/><path d="M773,388L857,518L874,280Z" fill="#474747" stroke="#474747" stroke-width="1.51"/><path d="M861,-58L786,36L874,280Z" fill="#676767" stroke="#676767" stroke-width="1.51"/><path d="M773,388L723,578L857,518Z" fill="#424242" stroke="#424242" stroke-width="1.51"/><path d="M653,-91L786,36L861,-58Z" fill="#7a7a7a" stroke="#7a7a7a" stroke-width="1.51"/><path d="M781,-186L653,-91L861,-58Z" fill="#7e7e7e" stroke="#7e7e7e" stroke-width="1.51"/><path d="M727,776L835,794L846,702Z" fill="#1f1f1f" stroke="#1f1f1f" stroke-width="1.51"/><path d="M690,204L687,366L773,388Z" fill="#5d5d5d" stroke="#5d5d5d" stroke-width="1.51"/><path d="M682,725L727,776L846,702Z" fill="#272727" stroke="#272727" stroke-width="1.51"/><path d="M723,578L682,725L846,702Z" fill="#313131" stroke="#313131" stroke-width="1.51"/><path d="M687,366L723,578L773,388Z" fill="#4e4e4e" stroke="#4e4e4e" stroke-width="1.51"/><path d="M686,-185L653,-91L781,-186Z" fill="#8a8a8a" stroke="#8a8a8a" stroke-width="1.51"/><path d="M635,60L690,204L786,36Z" fill="#787878" stroke="#787878" stroke-width="1.51"/><path d="M653,-91L635,60L786,36Z" fill="#838383" stroke="#838383" stroke-width="1.51"/><path d="M687,366L580,559L723,578Z" fill="#535353" stroke="#535353" stroke-width="1.51"/><path d="M544,252L687,366L690,204Z" fill="#6f6f6f" stroke="#6f6f6f" stroke-width="1.51"/><path d="M580,559L682,725L723,578Z" fill="#454545" stroke="#454545" stroke-width="1.51"/><path d="M682,725L473,866L727,776Z" fill="#323232" stroke="#323232" stroke-width="1.51"/><path d="M345,827L126,855L473,866Z" fill="#4e4e4e" stroke="#4e4e4e" stroke-width="1.51"/><path d="M580,559L522,707L682,725Z" fill="#484848" stroke="#484848" stroke-width="1.51"/><path d="M522,707L473,866L682,725Z" fill="#3d3d3d" stroke="#3d3d3d" stroke-width="1.51"/><path d="M544,252L545,346L687,366Z" fill="#727272" stroke="#727272" stroke-width="1.51"/><path d="M545,346L580,559L687,366Z" fill="#656565" stroke="#656565" stroke-width="1.51"/><path d="M635,60L544,252L690,204Z" fill="#7f7f7f" stroke="#7f7f7f" stroke-width="1.51"/><path d="M518,-279L653,-91L686,-185Z" fill="#9b9b9b" stroke="#9b9b9b" stroke-width="1.51"/><path d="M491,-26L635,60L653,-91Z" fill="#959595" stroke="#959595" stroke-width="1.51"/><path d="M494,51L544,252L635,60Z" fill="#8d8d8d" stroke="#8d8d8d" stroke-width="1.51"/><path d="M518,-279L491,-26L653,-91Z" fill="#a1a1a1" stroke="#a1a1a1" stroke-width="1.51"/><path d="M491,-26L494,51L635,60Z" fill="#979797" stroke="#979797" stroke-width="1.51"/><path d="M390,-271L491,-26L518,-279Z" fill="#afafaf" stroke="#afafaf" stroke-width="1.51"/><path d="M382,500L346,653L522,707Z" fill="#636363" stroke="#636363" stroke-width="1.51"/><path d="M494,51L347,181L544,252Z" fill="#949494" stroke="#949494" stroke-width="1.51"/><path d="M376,401L382,500L545,346Z" fill="#797979" stroke="#797979" stroke-width="1.51"/><path d="M545,346L382,500L580,559Z" fill="#6b6b6b" stroke="#6b6b6b" stroke-width="1.51"/><path d="M382,500L522,707L580,559Z" fill="#5e5e5e" stroke="#5e5e5e" stroke-width="1.51"/><path d="M390,-271L345,-62L491,-26Z" fill="#b2b2b2" stroke="#b2b2b2" stroke-width="1.51"/><path d="M347,181L376,401L544,252Z" fill="#8a8a8a" stroke="#8a8a8a" stroke-width="1.51"/><path d="M544,252L376,401L545,346Z" fill="#7c7c7c" stroke="#7c7c7c" stroke-width="1.51"/><path d="M343,68L347,181L494,51Z" fill="#a2a2a2" stroke="#a2a2a2" stroke-width="1.51"/><path d="M345,827L473,866L522,707Z" fill="#454545" stroke="#454545" stroke-width="1.51"/><path d="M346,653L345,827L522,707Z" fill="#525252" stroke="#525252" stroke-width="1.51"/><path d="M204,821L126,855L345,827Z" fill="#595959" stroke="#595959" stroke-width="1.51"/><path d="M345,-62L343,68L491,-26Z" fill="#acacac" stroke="#acacac" stroke-width="1.51"/><path d="M491,-26L343,68L494,51Z" fill="#a3a3a3" stroke="#a3a3a3" stroke-width="1.51"/><path d="M241,-259L194,-116L345,-62Z" fill="#c7c7c7" stroke="#c7c7c7" stroke-width="1.51"/><path d="M262,688L345,827L346,653Z" fill="#5d5d5d" stroke="#5d5d5d" stroke-width="1.51"/><path d="M347,181L232,258L376,401Z" fill="#969696" stroke="#969696" stroke-width="1.51"/><path d="M232,258L212,323L376,401Z" fill="#969696" stroke="#969696" stroke-width="1.51"/><path d="M376,401L194,482L382,500Z" fill="#818181" stroke="#818181" stroke-width="1.51"/><path d="M194,482L346,653L382,500Z" fill="#787878" stroke="#787878" stroke-width="1.51"/><path d="M241,-259L345,-62L390,-271Z" fill="#c1c1c1" stroke="#c1c1c1" stroke-width="1.51"/><path d="M194,482L262,688L346,653Z" fill="#767676" stroke="#767676" stroke-width="1.51"/><path d="M212,323L194,482L376,401Z" fill="#8f8f8f" stroke="#8f8f8f" stroke-width="1.51"/><path d="M196,21L343,68L345,-62Z" fill="#b6b6b6" stroke="#b6b6b6" stroke-width="1.51"/><path d="M262,688L204,821L345,827Z" fill="#5a5a5a" stroke="#5a5a5a" stroke-width="1.51"/><path d="M343,68L196,21L347,181Z" fill="#afafaf" stroke="#afafaf" stroke-width="1.51"/><path d="M196,21L232,258L347,181Z" fill="#aeaeae" stroke="#aeaeae" stroke-width="1.51"/><path d="M194,-116L196,21L345,-62Z" fill="#c2c2c2" stroke="#c2c2c2" stroke-width="1.51"/><path d="M194,-116L127,-60L196,21Z" fill="#cccccc" stroke="#cccccc" stroke-width="1.51"/><path d="M196,21L106,99L232,258Z" fill="#bbbbbb" stroke="#bbbbbb" stroke-width="1.51"/><path d="M25,706L204,821L262,688Z" fill="#6c6c6c" stroke="#6c6c6c" stroke-width="1.51"/><path d="M194,482L25,706L262,688Z" fill="#808080" stroke="#808080" stroke-width="1.51"/><path d="M32,470L25,706L194,482Z" fill="#919191" stroke="#919191" stroke-width="1.51"/><path d="M62,338L194,482L212,323Z" fill="#9f9f9f" stroke="#9f9f9f" stroke-width="1.51"/><path d="M106,99L70,247L232,258Z" fill="#b7b7b7" stroke="#b7b7b7" stroke-width="1.51"/><path d="M64,-278L194,-116L241,-259Z" fill="#d8d8d8" stroke="#d8d8d8" stroke-width="1.51"/><path d="M25,706L126,855L204,821Z" fill="#696969" stroke="#696969" stroke-width="1.51"/><path d="M70,247L212,323L232,258Z" fill="#a9a9a9" stroke="#a9a9a9" stroke-width="1.51"/><path d="M62,338L32,470L194,482Z" fill="#9f9f9f" stroke="#9f9f9f" stroke-width="1.51"/><path d="M70,247L62,338L212,323Z" fill="#acacac" stroke="#acacac" stroke-width="1.51"/><path d="M64,-278L127,-60L194,-116Z" fill="#d8d8d8" stroke="#d8d8d8" stroke-width="1.51"/><path d="M127,-60L106,99L196,21Z" fill="#c9c9c9" stroke="#c9c9c9" stroke-width="1.51"/><path d="M-71,547L25,706L32,470Z" fill="#969696" stroke="#969696" stroke-width="1.51"/><path d="M25,706L-23,727L126,855Z" fill="#737373" stroke="#737373" stroke-width="1.51"/><path d="M-23,727L-63,815L126,855Z" fill="#717171" stroke="#717171" stroke-width="1.51"/><path d="M-36,-196L-87,-120L127,-60Z" fill="#e2e2e2" stroke="#e2e2e2" stroke-width="1.51"/><path d="M-91,78L106,99L127,-60Z" fill="#d1d1d1" stroke="#d1d1d1" stroke-width="1.51"/><path d="M-87,-120L-91,78L127,-60Z" fill="#dddddd" stroke="#dddddd" stroke-width="1.51"/><path d="M64,-278L-36,-196L127,-60Z" fill="#e1e1e1" stroke="#e1e1e1" stroke-width="1.51"/><path d="M-61,229L70,247L106,99Z" fill="#c2c2c2" stroke="#c2c2c2" stroke-width="1.51"/><path d="M-91,78L-61,229L106,99Z" fill="#cdcdcd" stroke="#cdcdcd" stroke-width="1.51"/><path d="M-84,412L32,470L62,338Z" fill="#a9a9a9" stroke="#a9a9a9" stroke-width="1.51"/><path d="M-257,-275L-36,-196L64,-278Z" fill="#efefef" stroke="#efefef" stroke-width="1.51"/><path d="M-61,229L62,338L70,247Z" fill="#b9b9b9" stroke="#b9b9b9" stroke-width="1.51"/><path d="M-61,229L-84,412L62,338Z" fill="#b6b6b6" stroke="#b6b6b6" stroke-width="1.51"/><path d="M-71,547L-23,727L25,706Z" fill="#898989" stroke="#898989" stroke-width="1.51"/><path d="M-84,412L-71,547L32,470Z" fill="#a4a4a4" stroke="#a4a4a4" stroke-width="1.51"/><path d="M-204,49L-91,78L-87,-120Z" fill="#e2e2e2" stroke="#e2e2e2" stroke-width="1.51"/><path d="M-71,547L-254,662L-23,727Z" fill="#939393" stroke="#939393" stroke-width="1.51"/><path d="M-216,787L-63,815L-23,727Z" fill="#7c7c7c" stroke="#7c7c7c" stroke-width="1.51"/><path d="M-254,662L-216,787L-23,727Z" fill="#888888" stroke="#888888" stroke-width="1.51"/><path d="M-261,333L-84,412L-61,229Z" fill="#bebebe" stroke="#bebebe" stroke-width="1.51"/><path d="M-91,78L-199,177L-61,229Z" fill="#d2d2d2" stroke="#d2d2d2" stroke-width="1.51"/><path d="M-257,-275L-87,-120L-36,-196Z" fill="#f0f0f0" stroke="#f0f0f0" stroke-width="1.51"/><path d="M-261,-57L-204,49L-87,-120Z" fill="#e9e9e9" stroke="#e9e9e9" stroke-width="1.51"/><path d="M-84,412L-225,493L-71,547Z" fill="#a9a9a9" stroke="#a9a9a9" stroke-width="1.51"/><path d="M-199,177L-261,333L-61,229Z" fill="#cacaca" stroke="#cacaca" stroke-width="1.51"/><path d="M-225,493L-254,662L-71,547Z" fill="#a3a3a3" stroke="#a3a3a3" stroke-width="1.51"/><path d="M-204,49L-199,177L-91,78Z" fill="#dbdbdb" stroke="#dbdbdb" stroke-width="1.51"/><path d="M-257,-275L-261,-57L-87,-120Z" fill="#f2f2f2" stroke="#f2f2f2" stroke-width="1.51"/><path d="M-261,333L-225,493L-84,412Z" fill="#b6b6b6" stroke="#b6b6b6" stroke-width="1.51"/><path d="M-204,49L-261,-57L-199,177Z" fill="#e2e2e2" stroke="#e2e2e2" stroke-width="1.51"/><path d="M-261,-57L-261,333L-199,177Z" fill="#dbdbdb" stroke="#dbdbdb" stroke-width="1.51"/><path d="M-261,333L-254,662L-225,493Z" fill="#afafaf" stroke="#afafaf" stroke-width="1.51"/></svg>